<?xml version="1.0" standalone="no"?>
<!DOCTYPE svg PUBLIC "-//W3C//DTD SVG 20010904//EN"
 "http://www.w3.org/TR/2001/REC-SVG-20010904/DTD/svg10.dtd">
<svg version="1.0" xmlns="http://www.w3.org/2000/svg"
 width="148.000000pt" height="43.000000pt" viewBox="0 0 148.000000 43.000000"
 preserveAspectRatio="xMidYMid meet">

<g transform="translate(0.000000,43.000000) scale(0.100000,-0.100000)"
fill="#000000" stroke="none">
<path d="M117 376 c-3 -8 1 -13 10 -12 25 2 28 -25 4 -31 -12 -3 -21 -10 -21
-15 0 -6 11 -3 25 6 33 22 53 21 33 -1 -22 -26 -43 -67 -29 -59 7 5 11 -3 11
-21 1 -39 32 -103 65 -133 24 -21 23 -18 -8 24 -51 68 -46 82 10 27 l46 -46
18 40 c25 54 23 102 -4 150 -35 63 -145 111 -160 71z"/>
<path d="M402 225 c-23 -47 -42 -87 -42 -90 0 -3 8 -5 18 -5 12 0 26 17 41 47
22 45 24 46 37 28 19 -25 18 -35 -4 -35 -9 0 -23 -9 -30 -20 -12 -19 -10 -20
48 -20 33 0 60 3 59 8 0 4 -19 44 -42 90 l-42 82 -43 -85z"/>
<path d="M1230 253 c-60 -121 -61 -123 -39 -123 13 0 26 14 41 45 20 41 38 58
38 36 0 -5 3 -16 6 -25 4 -11 0 -16 -14 -16 -16 0 -32 -17 -32 -36 0 -2 27 -4
60 -4 l60 0 -42 85 c-24 47 -45 85 -49 85 -3 0 -16 -21 -29 -47z"/>
<path d="M584 247 l25 -44 -25 -36 c-13 -20 -24 -38 -24 -41 0 -10 46 8 58 23
12 15 14 15 26 -2 7 -9 23 -17 35 -17 l21 0 -24 39 -25 38 25 36 c29 43 29 47
5 47 -10 0 -26 -10 -34 -22 l-16 -23 -16 23 c-9 12 -25 22 -37 22 -19 0 -19
-1 6 -43z"/>
<path d="M740 210 c0 -73 2 -80 20 -80 18 0 20 7 20 80 0 73 -2 80 -20 80 -18
0 -20 -7 -20 -80z"/>
<path d="M846 277 c-12 -9 -17 -23 -14 -47 3 -32 6 -35 38 -38 59 -6 59 -22 1
-22 -44 0 -52 -3 -47 -16 3 -9 6 -18 6 -20 0 -2 25 -4 55 -4 49 0 57 3 64 23
16 42 -12 77 -62 77 -16 0 -26 4 -22 10 3 6 23 10 45 10 33 0 50 12 50 36 0
10 -98 3 -114 -9z"/>
<path d="M1004 274 c3 -9 6 -18 6 -20 0 -2 18 -4 39 -4 58 0 60 -18 4 -22
l-48 -3 -3 -52 c-2 -29 1 -53 5 -53 17 0 31 16 34 39 6 36 26 37 44 2 20 -39
60 -45 46 -7 -5 13 -7 43 -4 66 8 54 -11 70 -80 70 -41 0 -48 -3 -43 -16z"/>
<path d="M1355 247 c16 -29 25 -59 25 -86 0 -35 3 -42 16 -37 9 3 18 6 20 6 2
0 4 16 4 35 0 21 11 52 25 75 30 47 30 50 6 50 -10 0 -26 -10 -34 -22 l-16
-23 -16 23 c-9 12 -25 22 -36 22 -19 0 -19 -2 6 -43z"/>
<path d="M130 197 c0 -10 12 -40 26 -68 14 -28 23 -53 21 -55 -2 -3 -21 14
-41 36 -28 31 -36 36 -36 21 0 -10 -3 -33 -7 -51 l-6 -33 49 7 c63 8 71 18 44
53 -11 16 -27 47 -35 69 -8 21 -14 31 -15 21z"/>
</g>
</svg>
