<?xml version="1.0" encoding="UTF-8"?>
<!DOCTYPE svg PUBLIC "-//W3C//DTD SVG 1.1//EN" "http://www.w3.org/Graphics/SVG/1.1/DTD/svg11.dtd">
<svg xmlns="http://www.w3.org/2000/svg" version="1.1" width="148px" height="43px" style="shape-rendering:geometricPrecision; text-rendering:geometricPrecision; image-rendering:optimizeQuality; fill-rule:evenodd; clip-rule:evenodd" xmlns:xlink="http://www.w3.org/1999/xlink">
<g><path style="opacity:0.972" fill="#017bc9" d="M 9.5,5.5 C 10.3654,3.32273 12.0321,2.32273 14.5,2.5C 24.1948,4.36087 29.5281,10.1942 30.5,20C 30.5641,24.4792 29.0641,28.3125 26,31.5C 25.2825,30.5494 24.4491,30.3828 23.5,31C 24.8333,32 24.8333,33 23.5,34C 18.7357,37.359 13.4024,38.859 7.5,38.5C 7.75742,34.1083 8.42409,29.775 9.5,25.5C 10.3333,26.5 11.1667,27.5 12,28.5C 12.021,25.7111 11.8543,22.8777 11.5,20C 11.3349,17.0835 12.0015,14.4168 13.5,12C 12.451,11.5078 11.451,11.6744 10.5,12.5C 9.52577,10.2573 9.19244,7.92397 9.5,5.5 Z M 12.5,6.5 C 13.7733,7.07683 13.7733,7.7435 12.5,8.5C 11.537,8.03017 11.537,7.3635 12.5,6.5 Z"/></g>
<g><path style="opacity:0.801" fill="#0cf309" d="M 7.5,-0.5 C 8.16667,-0.5 8.83333,-0.5 9.5,-0.5C 9.26714,1.06181 8.60048,2.39514 7.5,3.5C 6.16667,3.83333 6.16667,4.16667 7.5,4.5C 8.16667,4.5 8.5,4.83333 8.5,5.5C 6.34774,12.9212 6.01441,20.4212 7.5,28C 7.01291,33.0985 5.67957,37.9318 3.5,42.5C 2.5,42.5 1.5,42.5 0.5,42.5C 3.2483,35.6044 2.91497,28.9378 -0.5,22.5C -0.5,18.8333 -0.5,15.1667 -0.5,11.5C 1.14874,6.88289 3.81541,2.88289 7.5,-0.5 Z"/></g>
<g><path style="opacity:0.004" fill="#a8b2a4" d="M 7.5,4.5 C 7.5,4.16667 7.5,3.83333 7.5,3.5C 8.83333,3.5 9.5,4.16667 9.5,5.5C 9.16667,5.5 8.83333,5.5 8.5,5.5C 8.5,4.83333 8.16667,4.5 7.5,4.5 Z"/></g>
<g><path style="opacity:0.841" fill="#017dcb" d="M 43.5,10.5 C 47.4795,16.4494 50.9795,22.7827 54,29.5C 55.9555,27.0888 57.7888,24.5888 59.5,22C 57.1503,19.1315 55.4836,15.9648 54.5,12.5C 57.7456,12.1351 60.4123,13.1351 62.5,15.5C 64.9911,12.5844 67.9911,11.9178 71.5,13.5C 69.3771,16.2456 67.3771,19.079 65.5,22C 67.5,24.6667 69.5,27.3333 71.5,30C 67.7284,32.4444 64.8951,31.611 63,27.5C 61.8333,28.6667 60.6667,29.8333 59.5,31C 50.6093,31.6158 41.9427,31.4492 33.5,30.5C 36.8466,23.8068 40.1799,17.1401 43.5,10.5 Z M 43.5,21.5 C 46.3771,23.8455 46.0437,24.6789 42.5,24C 43.2524,23.3292 43.5858,22.4959 43.5,21.5 Z"/></g>
<g><path style="opacity:0.629" fill="#017fcc" d="M 72.5,12.5 C 74.5,12.5 76.5,12.5 78.5,12.5C 78.5,18.8333 78.5,25.1667 78.5,31.5C 76.5,31.5 74.5,31.5 72.5,31.5C 72.5,25.1667 72.5,18.8333 72.5,12.5 Z"/></g>
<g><path style="opacity:0.776" fill="#017ecb" d="M 85.5,12.5 C 89.1667,12.5 92.8333,12.5 96.5,12.5C 96.5557,15.5608 95.2224,17.7275 92.5,19C 96.7029,21.9607 97.3696,25.6273 94.5,30C 90.9279,31.4049 87.2613,31.7383 83.5,31C 81.5494,29.2658 80.5494,27.0991 80.5,24.5C 81.552,24.6495 82.552,24.4828 83.5,24C 81.3271,21.1076 80.9937,17.941 82.5,14.5C 83.7387,14.0576 84.7387,13.3909 85.5,12.5 Z"/></g>
<g><path style="opacity:0.749" fill="#017dcb" d="M 124.5,10.5 C 125.376,10.3691 126.043,10.7025 126.5,11.5C 130.066,17.9621 133.066,24.6288 135.5,31.5C 126.827,31.6664 118.16,31.4998 109.5,31C 108.521,28.8627 107.188,27.0294 105.5,25.5C 104.719,26.7287 104.219,28.062 104,29.5C 98.9788,33.9936 97.1455,32.6603 98.5,25.5C 98.5738,22.7125 99.2405,20.2125 100.5,18C 99.624,16.414 98.624,14.914 97.5,13.5C 102.666,12.0145 107.666,12.3478 112.5,14.5C 113.79,17.6523 113.79,20.8189 112.5,24C 113.196,25.8928 114.03,27.7262 115,29.5C 118.721,23.3923 121.887,17.059 124.5,10.5 Z M 124.5,22.5 C 125.289,22.7828 125.956,23.2828 126.5,24C 125.184,24.5281 124.517,24.0281 124.5,22.5 Z"/></g>
<g><path style="opacity:0.809" fill="#017dcb" d="M 147.5,12.5 C 147.5,13.5 147.5,14.5 147.5,15.5C 143.274,19.1017 141.441,23.7683 142,29.5C 140.333,30.5 138.667,31.5 137,32.5C 136.667,28.8333 136.333,25.1667 136,21.5C 133.94,18.7143 132.44,15.7143 131.5,12.5C 135.49,11.6155 138.323,12.9489 140,16.5C 141.318,13.0586 143.818,11.7253 147.5,12.5 Z"/></g>
</svg>
